<svg xmlns="http://www.w3.org/2000/svg" viewBox="0 0 512.0 512.0" width="512.0" height="512.0"><g stroke="#D97757" stroke-width="15.83" stroke-linecap="round"><line x1="256.00" y1="150.28" x2="256.00" y2="46.00"/><line x1="257.86" y1="150.77" x2="310.00" y2="60.47"/><line x1="259.23" y1="152.14" x2="349.53" y2="100.00"/><line x1="259.72" y1="154.00" x2="364.00" y2="154.00"/><line x1="259.23" y1="155.86" x2="349.53" y2="208.00"/><line x1="257.86" y1="157.23" x2="310.00" y2="247.53"/><line x1="256.00" y1="157.72" x2="256.00" y2="262.00"/><line x1="254.14" y1="157.23" x2="202.00" y2="247.53"/><line x1="252.77" y1="155.86" x2="162.47" y2="208.00"/><line x1="252.28" y1="154.00" x2="148.00" y2="154.00"/><line x1="252.77" y1="152.14" x2="162.47" y2="100.00"/><line x1="254.14" y1="150.77" x2="202.00" y2="60.47"/></g><circle cx="256.00" cy="154.00" r="24.21" fill="#D97757"/><g transform="translate(111.00,297.91) scale(3.0833)"><g fill="none" stroke="#2FA198" stroke-width="2.1" stroke-linecap="round" stroke-linejoin="round"><path d="M12 5a3 3 0 1 0-5.997.125 4 4 0 0 0-2.526 5.77 4 4 0 0 0 .556 6.588A4 4 0 1 0 12 18Z" />
  <path d="M9 13a4.5 4.5 0 0 0 3-4" />
  <path d="M6.003 5.125A3 3 0 0 0 6.401 6.5" />
  <path d="M3.477 10.896a4 4 0 0 1 .585-.396" />
  <path d="M6 18a4 4 0 0 1-1.967-.516" />
  <path d="M12 13h4" />
  <path d="M12 18h6a2 2 0 0 1 2 2v1" />
  <path d="M12 8h8" />
  <path d="M16 8V5a2 2 0 0 1 2-2" />
  <circle cx="16" cy="13" r=".5" />
  <circle cx="18" cy="3" r=".5" />
  <circle cx="20" cy="21" r=".5" />
  <circle cx="20" cy="8" r=".5" /></g></g><g transform="translate(219.00,297.91) scale(3.0833)"><g fill="none" stroke="#2FA198" stroke-width="2.1" stroke-linecap="round" stroke-linejoin="round"><path d="M8 2v4" />
  <path d="M16 2v4" />
  <rect width="18" height="18" x="3" y="4" rx="2" />
  <path d="M3 10h18" />
  <path d="M8 14h.01" />
  <path d="M12 14h.01" />
  <path d="M16 14h.01" />
  <path d="M8 18h.01" />
  <path d="M12 18h.01" />
  <path d="M16 18h.01" /></g></g><g transform="translate(327.00,297.91) scale(3.0833)"><g fill="none" stroke="#2FA198" stroke-width="2.1" stroke-linecap="round" stroke-linejoin="round"><circle cx="12" cy="12" r="10" />
  <path d="M12 6v6l4 2" /></g></g><g transform="translate(41.55,460.00) scale(0.07400,-0.07400)"><path d="M291 -10Q214 -10 157.0 21.5Q100 53 69.0 111.0Q38 169 38 247Q38 306 55.5 352.5Q73 399 106.0 431.5Q139 464 186.0 481.5Q233 499 291 499Q324 499 362.5 490.0Q401 481 435 460Q451 450 456.0 436.0Q461 422 458.0 407.5Q455 393 445.5 382.5Q436 372 422.0 369.5Q408 367 391 376Q369 389 346.0 395.5Q323 402 302 402Q269 402 244.0 391.5Q219 381 201.5 361.5Q184 342 175.0 313.0Q166 284 166 246Q166 172 201.5 129.5Q237 87 302 87Q323 87 345.5 93.0Q368 99 391 112Q408 121 421.5 118.0Q435 115 444.0 104.5Q453 94 455.0 79.5Q457 65 451.5 51.0Q446 37 431 28Q398 8 361.0 -1.0Q324 -10 291 -10Z" fill="#D97757"/></g><g transform="translate(76.48,460.00) scale(0.07400,-0.07400)"><path d="M232 -10Q149 -10 107.0 37.5Q65 85 65 177V650Q65 681 81.0 697.0Q97 713 127 713Q157 713 173.5 697.0Q190 681 190 650V183Q190 137 209.5 115.0Q229 93 265 93Q273 93 280.0 93.5Q287 94 294 95Q308 97 313.0 87.5Q318 78 318 49Q318 24 308.0 10.0Q298 -4 275 -7Q265 -8 254.0 -9.0Q243 -10 232 -10Z" fill="#D97757"/></g><g transform="translate(100.08,460.00) scale(0.07400,-0.07400)"><path d="M226 -10Q173 -10 131.5 10.5Q90 31 66.5 66.0Q43 101 43 145Q43 199 71.0 230.5Q99 262 162.0 276.0Q225 290 331 290H381V218H332Q270 218 233.0 212.0Q196 206 180.5 191.5Q165 177 165 151Q165 118 188.0 97.0Q211 76 252 76Q285 76 310.5 91.5Q336 107 351.0 134.0Q366 161 366 196V311Q366 361 344.0 383.0Q322 405 270 405Q241 405 207.5 398.0Q174 391 137 374Q118 365 103.5 369.0Q89 373 81.0 385.5Q73 398 73.0 413.0Q73 428 81.0 442.5Q89 457 108 464Q154 483 196.5 491.0Q239 499 274 499Q346 499 392.5 477.0Q439 455 462.0 410.5Q485 366 485 296V56Q485 25 470.0 8.5Q455 -8 427 -8Q399 -8 383.5 8.5Q368 25 368 56V104H376Q369 69 348.5 43.5Q328 18 297.0 4.0Q266 -10 226 -10Z" fill="#D97757"/></g><g transform="translate(140.56,460.00) scale(0.07400,-0.07400)"><path d="M242 -10Q181 -10 141.0 12.5Q101 35 81.5 80.0Q62 125 62 192V434Q62 466 78.0 481.5Q94 497 124 497Q154 497 170.5 481.5Q187 466 187 434V190Q187 138 208.0 113.0Q229 88 275 88Q325 88 357.0 122.5Q389 157 389 214V434Q389 466 405.0 481.5Q421 497 451 497Q481 497 497.5 481.5Q514 466 514 434V56Q514 -8 453 -8Q424 -8 408.0 8.5Q392 25 392 56V132L406 102Q385 48 342.5 19.0Q300 -10 242 -10Z" fill="#D97757"/></g><g transform="translate(183.41,460.00) scale(0.07400,-0.07400)"><path d="M253 -10Q189 -10 140.5 21.0Q92 52 65.0 109.5Q38 167 38 245Q38 324 65.0 380.5Q92 437 140.5 468.0Q189 499 253 499Q314 499 359.5 469.0Q405 439 421 390H410V650Q410 681 426.0 697.0Q442 713 472 713Q502 713 518.5 697.0Q535 681 535 650V56Q535 25 519.0 8.5Q503 -8 473 -8Q443 -8 427.0 8.5Q411 25 411 56V134L422 104Q407 52 361.0 21.0Q315 -10 253 -10ZM288 85Q325 85 353.0 103.0Q381 121 396.5 156.5Q412 192 412 245Q412 325 378.0 364.5Q344 404 288 404Q251 404 223.0 386.5Q195 369 179.5 333.5Q164 298 164 245Q164 166 198.0 125.5Q232 85 288 85Z" fill="#D97757"/></g><g transform="translate(227.81,460.00) scale(0.07400,-0.07400)"><path d="M306 -10Q223 -10 163.0 21.0Q103 52 70.5 109.0Q38 166 38 244Q38 320 69.5 377.0Q101 434 156.5 466.5Q212 499 283 499Q335 499 376.5 482.0Q418 465 447.5 433.0Q477 401 492.5 355.5Q508 310 508 253Q508 235 495.5 225.5Q483 216 460 216H139V288H420L404 273Q404 319 390.5 350.0Q377 381 351.5 397.5Q326 414 288 414Q246 414 216.5 394.5Q187 375 171.5 339.5Q156 304 156 255V248Q156 166 194.5 125.5Q233 85 308 85Q334 85 366.5 91.5Q399 98 428 114Q449 126 465.0 124.5Q481 123 490.5 113.0Q500 103 502.0 88.5Q504 74 496.5 59.0Q489 44 471 33Q436 11 390.5 0.5Q345 -10 306 -10Z" fill="#D97757"/></g><g transform="translate(267.91,460.00) scale(0.07400,-0.07400)"><path d="M129 -8Q99 -8 83.0 8.5Q67 25 67 56V434Q67 465 83.0 481.0Q99 497 128 497Q157 497 173.0 481.0Q189 465 189 434V361L178 391Q198 441 240.0 470.0Q282 499 340 499Q399 499 437.0 471.0Q475 443 490 385H476Q496 438 542.0 468.5Q588 499 648 499Q704 499 740.5 477.0Q777 455 795.0 410.5Q813 366 813 298V56Q813 25 796.5 8.5Q780 -8 750 -8Q720 -8 704.0 8.5Q688 25 688 56V293Q688 349 669.5 375.0Q651 401 607 401Q558 401 530.0 366.5Q502 332 502 271V56Q502 25 486.0 8.5Q470 -8 440 -8Q410 -8 393.5 8.5Q377 25 377 56V293Q377 349 358.5 375.0Q340 401 297 401Q248 401 220.0 366.5Q192 332 192 271V56Q192 -8 129 -8Z" fill="#2FA198"/></g><g transform="translate(332.81,460.00) scale(0.07400,-0.07400)"><path d="M306 -10Q223 -10 163.0 21.0Q103 52 70.5 109.0Q38 166 38 244Q38 320 69.5 377.0Q101 434 156.5 466.5Q212 499 283 499Q335 499 376.5 482.0Q418 465 447.5 433.0Q477 401 492.5 355.5Q508 310 508 253Q508 235 495.5 225.5Q483 216 460 216H139V288H420L404 273Q404 319 390.5 350.0Q377 381 351.5 397.5Q326 414 288 414Q246 414 216.5 394.5Q187 375 171.5 339.5Q156 304 156 255V248Q156 166 194.5 125.5Q233 85 308 85Q334 85 366.5 91.5Q399 98 428 114Q449 126 465.0 124.5Q481 123 490.5 113.0Q500 103 502.0 88.5Q504 74 496.5 59.0Q489 44 471 33Q436 11 390.5 0.5Q345 -10 306 -10Z" fill="#2FA198"/></g><g transform="translate(372.92,460.00) scale(0.07400,-0.07400)"><path d="M289 -10Q224 -10 180.5 12.0Q137 34 116.0 76.5Q95 119 95 182V395H43Q19 395 6.0 407.5Q-7 420 -7 442Q-7 465 6.0 477.0Q19 489 43 489H95V580Q95 611 111.5 627.0Q128 643 158 643Q188 643 204.0 627.0Q220 611 220 580V489H326Q350 489 363.0 477.0Q376 465 376 442Q376 420 363.0 407.5Q350 395 326 395H220V189Q220 141 241.0 117.0Q262 93 309 93Q326 93 339.0 96.0Q352 99 362 100Q374 101 382.0 92.5Q390 84 390 58Q390 38 383.5 22.5Q377 7 360 1Q347 -3 326.0 -6.5Q305 -10 289 -10Z" fill="#2FA198"/></g><g transform="translate(401.34,460.00) scale(0.07400,-0.07400)"><path d="M306 -10Q223 -10 163.0 21.0Q103 52 70.5 109.0Q38 166 38 244Q38 320 69.5 377.0Q101 434 156.5 466.5Q212 499 283 499Q335 499 376.5 482.0Q418 465 447.5 433.0Q477 401 492.5 355.5Q508 310 508 253Q508 235 495.5 225.5Q483 216 460 216H139V288H420L404 273Q404 319 390.5 350.0Q377 381 351.5 397.5Q326 414 288 414Q246 414 216.5 394.5Q187 375 171.5 339.5Q156 304 156 255V248Q156 166 194.5 125.5Q233 85 308 85Q334 85 366.5 91.5Q399 98 428 114Q449 126 465.0 124.5Q481 123 490.5 113.0Q500 103 502.0 88.5Q504 74 496.5 59.0Q489 44 471 33Q436 11 390.5 0.5Q345 -10 306 -10Z" fill="#2FA198"/></g><g transform="translate(441.44,460.00) scale(0.07400,-0.07400)"><path d="M129 -8Q98 -8 81.5 8.5Q65 25 65 56V434Q65 465 81.0 481.0Q97 497 126 497Q155 497 171.0 481.0Q187 465 187 434V371H177Q191 431 232.0 462.0Q273 493 341 499Q362 501 374.5 488.5Q387 476 389 450Q391 425 377.5 409.5Q364 394 337 391L315 389Q254 383 223.0 351.5Q192 320 192 263V56Q192 25 176.0 8.5Q160 -8 129 -8Z" fill="#2FA198"/></g></svg>
